# xmcd
#
# Track frame offsets: 
#        182
#        12810
#        24067
#        36687
#        45950
#        55925
#        66230
#        83577
#        96710
#        109130
#        120710
#        134102
#        145770
#        156985
#        172857
#        184457
#        197527
#        208852
#        221007
#        232955
#        244380
#        255422
#        268135
#        277595
#        290447
#        305392
#
# Disc length: 4267 seconds
#
# Revision: 4
# Processed by: cddbd v1.5.1PL0 Copyright (c) Steve Scherf et al.
# Submitted via: ExactAudioCopy v0.95b2
#
DISCID=7e10a91a
DTITLE=Various Artist - The Fire-Fury Records Story Disc 2
DYEAR=1900
DGENRE=R&B
TTITLE0=Elmore James - Shake YourMoneymaker
TTITLE1=Buster Brown - Sugar Babe
TTITLE2=King Curtis and the Noble Knights - Soul Twist
TTITLE3=Lee Dorey - Eenie Meenie Miny Mo
TTITLE4=Titus Turner - People Sure Act Funns (When They Get a Lotta' M
TTITLE4=oney)
TTITLE5=Ronnie Miller (And the Pips) /Long Time No See
TTITLE6=King Curtis - Mr. Crow
TTITLE7=Don Gardner and Dee Dee Ford - I Need Your Lovin'
TTITLE8=Mary "B" - Something for You Baby
TTITLE9=Titus Turner - Bow Wow (Life Ain't Nothing But Dog Eat Dog)
TTITLE10=Don Gardner and Dee Dee Ford - Don't You Worry
TTITLE11=Noble "Thin Man" Watts - Jookin
TTITLE12=Titus Turner - All Around the World
TTITLE13=Dr. Horse - Jack. That Cat Was Clean
TTITLE14=Noble Watts and June Bateman - Go Away Mr. Blues
TTITLE15=Dr. Horse - Salt Pork, West Virginia
TTITLE16=Wild Jimmy Spruill - Cut and Dried
TTITLE17=Marshall Jones (featuring Elmore James on guitar) - You Can D
TTITLE17=o It If You Want To
TTITLE18=Lewis Jones - I Believe to My Soul
TTITLE19=King Curtis - Harmonica Twist
TTITLE20=Kip Anderson - I Will Cry
TTITLE21=Marshall Jones (featuring Elmore James on Guitar) ?Woke Up Ha
TTITLE21=ppy
TTITLE22=Les Cooper and the Soul Rockers - Wiggle Wobble
TTITLE23=Bobby Porter - Searching for Love
TTITLE24=Elmore James - It Hurts Me Too
TTITLE25=Joe Haywood - Strong Feeling
EXTD=
EXTT0=Elmore James\n
EXTT1=Buster Brown\n
EXTT2=King Curtis and the Noble Knights\n
EXTT3=Lee Dorsey\n
EXTT4=Titus Turner\n
EXTT5=Ronnie Miller (and the Pips]\n
EXTT6=King Curtis\n
EXTT7=Don Gardner and Dee Dee Ford\n
EXTT8=Mary B\n
EXTT9=Titus Turner\n
EXTT10=Don Gardner and Dee Dee Ford\n
EXTT11=Noble Thin Man Watts\n
EXTT12=Titus Turner\n
EXTT13=Dr. Horse\n
EXTT14=Noble Watts and June Bateman\n
EXTT15=Dr. Horse\n
EXTT16=Wild Jimmy Spruill\n
EXTT17=Marshall Jones\n
EXTT18=Lewis Jones\n
EXTT19=King Curtis\n
EXTT20=Kip Anderson\n
EXTT21=Marshall Jones\n
EXTT22=Les Cooper and The Soul Rockers\n
EXTT23=Bobby Porter\n
EXTT24=Elmore James\n
EXTT25=Joe Haywood\n
PLAYORDER=
